<svg width="1024" height="1024" viewBox="0 0 1024 1024" fill="none" xmlns="http://www.w3.org/2000/svg">
<rect y="9.15527e-05" width="1024" height="1024" rx="100" fill="#FF2C55"/>
<path d="M505.104 209.315C534.056 196.903 544.53 169.935 576.028 169.463C610.971 168.94 623.841 195.705 654.381 212.693C676.57 225.035 688.435 233.035 711.12 244.439C740.147 259.033 760.936 258.755 787.447 277.537C797.533 284.683 807.624 286.153 811.763 297.801C815.904 309.451 806.993 316.577 805.684 328.872C804.093 343.823 803.95 352.438 805.684 367.373C808.455 391.242 825.285 402.148 823.922 426.138C822.999 442.383 818.906 451.37 811.763 465.99C804.535 480.786 796.16 486.466 787.447 500.439C774.587 521.06 767.855 533.165 759.077 555.827C749.81 579.752 748.384 594.421 742.191 619.32C735.982 644.282 737.213 659.74 727.331 683.489C716.985 708.35 708.484 721.828 690.18 741.578C668.69 764.767 650.857 771.529 623.985 788.185C598.2 804.167 583.499 813.046 555.764 825.335C526.934 838.11 510.822 848.627 479.437 851.678C451.429 854.402 434.713 851.915 407.838 843.573C381.565 835.418 368.042 826.11 345.755 810.771L344.345 809.8C324.757 796.322 323.539 783.016 305.168 767.921C286.611 752.674 269.403 742.593 249.78 728.745C230.522 715.153 214.791 717.358 198.445 700.375C182.789 684.109 172.027 672.814 169.4 650.391C166.087 622.113 184.016 608.065 198.445 583.521C214.814 555.677 228.81 543.241 249.78 518.676C267.844 497.515 271.352 488.07 288.281 465.99C305.245 443.866 326.762 432.093 336.239 405.874C346.518 377.438 337.145 358.24 344.345 328.872C351.785 298.519 350.781 275.417 374.065 254.571C392.422 238.136 409.734 240.19 432.83 231.606C460.59 221.287 477.885 220.985 505.104 209.315Z" stroke="white" stroke-width="24"/>
<path d="M518.613 212.017C543.366 199.125 548.323 172.832 576.028 169.463C603.502 166.122 618.313 181.442 641.547 196.482C659.442 208.064 666.175 216.382 683.426 228.904C713.214 250.526 732.055 253.333 765.156 269.431C782.984 278.102 800.128 277.192 807.035 295.774C812.742 311.128 803.887 321.429 801.631 337.653C799.089 355.942 799.333 366.485 804.333 384.26C809.565 402.859 822.571 407.493 822.571 426.814C822.571 446.135 812.156 452.489 801.631 468.692C787.045 491.149 775.435 503.563 766.507 528.808C757.853 553.283 756.181 567.306 752.323 592.977C748.801 616.407 754.275 629.31 744.893 651.067C736.027 671.625 731.33 684.115 720.576 703.753C709.446 724.077 701.483 733.248 687.478 751.71C669.703 775.144 651.16 778.8 624.661 791.562C597.595 804.598 583.978 812.316 555.764 822.634C532.114 831.282 517.724 841.01 493.621 848.301C469.456 855.611 456 856.64 430.803 855.056C406.392 853.521 392.886 846.818 371.301 836.107L370.012 835.467C351.922 826.494 343.387 819.044 328.809 805.072C312.223 789.175 307.9 780.089 292.334 763.193C278.375 748.041 270.357 739.057 251.806 730.096C233.824 721.409 220.35 724.072 203.173 713.885C186.291 703.872 178.602 695 173.453 676.059C167.996 655.987 168.544 639.354 176.155 619.995C187.454 591.256 207.765 583.111 223.437 556.502C238.225 531.395 249.129 523.079 264.64 498.413C283.501 468.419 297.666 451.561 317.326 422.085C330.507 402.324 331.766 393.94 336.914 370.75C342.495 345.611 334.06 328.865 340.292 303.88C346.793 277.816 357.379 262.076 380.144 247.817C401.759 234.277 419.552 241.778 444.313 235.658C473.873 228.352 491.607 226.083 518.613 212.017Z" stroke="white" stroke-width="24"/>
<path d="M368.661 642.286C382.178 666.347 398.505 682.265 426.075 683.489C459.951 684.993 484.011 660.812 492.946 628.101C499.735 603.247 490.706 588.698 475.384 567.985C460.848 548.335 450.511 533.449 426.075 532.861C397.172 532.166 375.916 546.045 363.257 572.038C351.211 596.775 355.185 618.298 368.661 642.286Z" fill="white" stroke="white" stroke-width="24"/>
</svg>
